<?xml version="1.0" standalone="no"?>
<!DOCTYPE svg PUBLIC "-//W3C//DTD SVG 20010904//EN"
 "http://www.w3.org/TR/2001/REC-SVG-20010904/DTD/svg10.dtd">
<svg version="1.0" xmlns="http://www.w3.org/2000/svg"
 width="996.000000pt" height="996.000000pt" viewBox="0 0 996.000000 996.000000"
 preserveAspectRatio="xMidYMid meet">
<metadata>
Created by potrace 1.14, written by Peter Selinger 2001-2017
</metadata>
<g transform="translate(0.000000,996.000000) scale(0.100000,-0.100000)"
fill="#000000" stroke="none">
<path d="M4860 9653 c-69 -40 -137 -79 -152 -85 -16 -7 -28 -15 -28 -19 0 -4
-11 -10 -25 -13 -14 -4 -25 -11 -25 -16 0 -6 -4 -10 -9 -10 -5 0 -44 -20 -85
-45 -42 -25 -81 -45 -86 -45 -6 0 -10 -4 -10 -9 0 -5 -10 -13 -22 -17 -13 -4
-34 -15 -48 -24 -14 -10 -92 -57 -175 -105 -82 -47 -157 -91 -165 -96 -8 -5
-64 -38 -125 -73 -60 -34 -204 -118 -320 -186 -115 -67 -227 -132 -247 -144
-21 -11 -101 -58 -179 -103 -77 -46 -145 -83 -150 -83 -5 0 -9 -4 -9 -10 0 -5
-6 -10 -14 -10 -8 0 -16 -3 -18 -7 -1 -5 -18 -16 -35 -25 -18 -10 -48 -26 -65
-35 -18 -10 -34 -21 -36 -25 -2 -5 -7 -8 -12 -8 -11 0 -204 -113 -208 -122 -2
-4 -8 -8 -12 -8 -5 0 -87 -46 -182 -101 -95 -56 -198 -115 -228 -132 -30 -17
-56 -34 -58 -39 -2 -4 -8 -8 -14 -8 -6 0 -59 -29 -119 -65 -59 -36 -113 -65
-119 -65 -5 0 -10 -4 -10 -9 0 -5 -8 -11 -17 -14 -10 -4 -36 -17 -58 -31 -22
-14 -51 -31 -65 -39 -14 -7 -92 -53 -175 -102 -82 -48 -170 -99 -195 -113 -25
-14 -57 -33 -72 -43 -14 -11 -29 -19 -33 -19 -3 0 -31 -16 -61 -35 -30 -19
-56 -35 -59 -35 -2 0 -45 -25 -95 -55 -50 -30 -95 -55 -99 -55 -5 0 -12 -8
-16 -17 -12 -28 -12 -1073 0 -1073 7 0 7 -3 0 -8 -7 -4 -10 -335 -10 -957 0
-622 3 -953 10 -957 7 -5 7 -8 0 -8 -7 0 -10 -297 -9 -871 1 -843 1 -872 20
-883 75 -45 135 -79 172 -98 23 -12 42 -26 42 -30 0 -4 5 -8 11 -8 6 0 60 -29
119 -65 59 -36 110 -65 113 -65 3 0 26 -13 50 -30 25 -16 50 -30 56 -30 6 0
11 -4 11 -10 0 -5 4 -10 10 -10 5 0 55 -27 111 -60 55 -33 102 -60 104 -60 2
0 40 -22 85 -50 45 -27 83 -50 84 -50 2 0 99 -56 216 -125 117 -69 216 -125
221 -125 5 0 9 -4 9 -10 0 -5 4 -10 9 -10 4 0 97 -52 206 -115 108 -63 201
-115 205 -115 5 0 10 -4 12 -8 2 -5 28 -22 58 -39 30 -17 92 -53 138 -79 46
-27 95 -55 110 -63 15 -8 29 -17 32 -20 3 -4 16 -12 30 -18 42 -21 103 -57
137 -80 17 -13 33 -23 36 -23 5 0 162 -90 207 -119 14 -8 28 -15 31 -14 4 1
15 -7 24 -17 10 -11 22 -20 28 -20 5 0 37 -17 71 -37 93 -58 100 -62 116 -69
8 -4 38 -22 65 -39 28 -17 52 -31 55 -31 3 0 31 -17 63 -37 31 -20 64 -37 72
-37 8 0 15 -4 15 -8 0 -5 15 -16 33 -25 17 -9 41 -23 52 -29 40 -27 102 -62
155 -91 30 -16 62 -36 71 -43 8 -8 18 -14 22 -14 5 0 111 -61 202 -117 11 -7
27 -15 35 -19 8 -4 43 -25 78 -46 34 -21 67 -38 72 -38 6 0 10 -4 10 -8 0 -4
12 -13 28 -20 35 -15 105 -55 112 -63 3 -3 14 -11 26 -17 21 -11 26 -9 284
150 36 22 85 52 110 66 25 14 47 28 50 32 8 10 212 130 222 130 4 0 8 4 8 9 0
5 8 12 18 15 18 7 57 28 82 46 29 20 485 300 505 310 11 5 63 37 115 70 52 33
111 68 130 78 19 9 44 25 54 34 11 10 26 18 33 18 7 0 13 3 13 8 0 4 18 16 40
26 22 10 48 27 59 37 10 10 22 15 25 12 3 -4 6 -1 6 5 0 7 4 12 9 12 5 0 38
18 72 40 65 40 158 95 194 115 58 32 71 41 78 53 4 6 12 12 18 12 5 0 35 16
65 35 30 19 57 35 60 35 2 0 17 9 32 19 54 38 117 75 125 73 4 -1 7 2 7 7 0 5
8 11 18 15 9 3 36 18 60 33 23 16 109 68 190 117 81 49 150 94 154 100 4 6 8
8 8 3 0 -4 26 11 59 33 32 22 61 40 64 40 4 0 45 25 92 55 46 30 87 55 89 55
9 0 141 85 144 92 2 5 8 6 13 2 5 -3 9 -1 9 4 0 5 8 12 18 16 9 3 29 14 44 23
30 20 167 104 213 130 17 10 32 21 35 24 3 3 12 8 20 12 8 3 58 33 110 66 52
33 124 77 160 97 36 21 70 43 76 48 6 6 29 20 52 31 23 11 42 27 43 35 0 8 1
1052 2 2319 2 2208 1 2306 -16 2322 -10 9 -36 24 -57 34 -22 10 -40 22 -40 27
0 4 -4 8 -10 8 -5 0 -44 20 -86 45 -41 25 -80 45 -85 45 -5 0 -9 5 -9 10 0 6
-4 10 -8 10 -5 0 -120 65 -256 145 -137 80 -252 145 -257 145 -5 0 -9 5 -9 10
0 6 -4 10 -9 10 -9 0 -259 143 -278 160 -7 5 -15 10 -18 10 -3 0 -78 43 -167
95 -88 52 -164 95 -169 95 -5 0 -9 5 -9 10 0 6 -3 9 -7 8 -5 -1 -19 5 -33 14
-23 15 -284 168 -357 209 -139 79 -249 145 -251 151 -2 5 -8 8 -14 8 -6 0 -39
18 -74 40 -35 22 -65 40 -68 40 -2 0 -50 27 -105 60 -56 33 -106 60 -111 60
-6 0 -10 4 -10 9 0 5 -8 11 -17 14 -10 4 -40 20 -68 37 -27 17 -59 35 -70 40
-11 6 -33 19 -50 30 -16 10 -41 25 -55 33 -54 30 -100 57 -165 96 -37 23 -69
41 -71 41 -2 0 -37 20 -77 45 -41 25 -80 45 -86 45 -6 0 -11 4 -11 9 0 5 -10
13 -22 17 -13 4 -25 10 -28 13 -3 4 -66 42 -140 85 -74 42 -142 81 -150 87
-68 42 -223 129 -231 129 -5 0 -9 3 -9 8 0 4 -10 12 -23 18 -33 16 -114 62
-165 95 -25 16 -52 29 -59 29 -7 0 -13 4 -13 8 0 5 -10 13 -22 19 -19 8 -42
-2 -148 -64z"/>
</g>
</svg>
